{"title":"Repo men DvDrip-Noir","uid":5681099,"size":735732477,"categoryP":"video","categoryS":"movies","magnet":"?xt=urn:btih:65f388d522b5f54aca29f8c88debf64557be33fa&amp;dn=Repo+men+DvDrip-Noir&amp;tr=udp%3A%2F%2Ftracker.openbittorrent.com%3A80&amp;tr=udp%3A%2F%2Fopen.demonii.com%3A1337&amp;tr=udp%3A%2F%2Ftracker.coppersurfer.tk%3A6969&amp;tr=udp%3A%2F%2Fexodus.desync.com%3A6969","seeders":0,"leechers":0,"uploader":null,"files":2,"time":1278835132,"description":"Plot : In the future humans have extended and improved our lives through highly sophisticated and expensive mechanical organs created by a company called &quot;The Union&quot;. The dark side of these medical breakthroughs is that if you don't pay your bill, &quot;The Union&quot; sends its highly skilled repo men to take back its property... with no concern for your comfort or survival. Former soldier Remy is one of the best organ repo men in the business. But when he suffers a cardiac failure on the job, he awakens to find himself fitted with the company's top-of-the-line heart-replacement... as well as a hefty debt. But a side effect of the procedure is that his heart's no longer in the job. When he can't make the payments, The Union sends its toughest enforcer, Remy's former partner Jake, to track him down.\n\n\n  &lt;a href=&quot;\nhttp://www.imdb.com/title/tt0087995/&quot; rel=&quot;nofollow&quot; target=&quot;_NEW&quot;&gt;\nhttp://www.imdb.com/title/tt0087995/&lt;/a&gt;\nGenre:Action | Comedy | Sci-Fi\n\n\n \nVideo\nID : 0\nFormat : MPEG-4 Visual\nFormat profile : Advanced Simple@L5\nFormat settings, BVOP : Yes\nFormat settings, QPel : No\nFormat settings, GMC : No warppoints\nFormat settings, Matrix : Default (H.263)\nMuxing mode : Packed bitstream\nCodec ID : XVID\nCodec ID/Hint : XviD\nDuration : 1h 58mn\nBit rate : 702 Kbps\nWidth : 640 pixels\nHeight : 272 pixels\nDisplay aspect ratio : 2.35:1\nFrame rate : 23.976 fps\nResolution : 8 bits\nColorimetry : 4:2:0\nScan type : Progressive\nBits/(Pixel*Frame) : 0.168\nStream size : 594 MiB (85%)\nWriting library : XviD 1.3.0.dev55\n\nAudio\nID : 1\nFormat : MPEG Audio\nFormat version : Version 1\nFormat profile : Layer 3\nMode : Joint stereo\nFormat_Settings_ModeExtension : MS Stereo\nCodec ID : 55\nCodec ID/Hint : MP3\nDuration : 1h 58mn\nBit rate mode : Variable\nBit rate : 115 Kbps\nChannel(s) : 2 channels\nSampling rate : 44.1 KHz\nStream size : 96.9 MiB (14%)\nAlignment : Aligned on interleaves\nInterleave, duration : 26 ms (0.63 video frame)\nInterleave, preload duration : 513 ms\nWriting library : LAME3.98.4","torrent":{"xt":"urn:btih:65f388d522b5f54aca29f8c88debf64557be33fa","amp;dn":"Repo+men+DvDrip-Noir","amp;tr":["udp%3A%2F%2Ftracker.openbittorrent.com%3A80","udp%3A%2F%2Fopen.demonii.com%3A1337","udp%3A%2F%2Ftracker.coppersurfer.tk%3A6969","udp%3A%2F%2Fexodus.desync.com%3A6969"],"infoHash":"65f388d522b5f54aca29f8c88debf64557be33fa","infoHashBuffer":{"type":"Buffer","data":[101,243,136,213,34,181,245,74,202,41,248,200,141,235,246,69,87,190,51,250]},"announce":[],"urlList":[]}}